PathFileType	4	(X/Y/Z)	C:/Users/opensim2020/Desktop/walking_exp_matlab/subject06_walking20_straight_01.trc																																																																																																																															
DataRate	CameraRate	NumFrames	NumMarkers	Units	OrigDataRate	OrigDataStartFrame	OrigNumFrames																																																																																																																											
100	100	8	43	mm	100	780	127																																																																																																																											
Frame#	Time	LFHD			RFHD			LBHD			RBHD			C7			T10			CLAV			STRN			RBAK			LSHO			LUPA			LELB			LFRM			LWRA			LWRB			LFIN			RSHO			RUPA			RELB			RFRM			RWRA			RWRB			RFIN			LASI			RASI			LPSI			RPSI			LTHI			LKNE			LTIB			LANK			LHEE			LTOE			RTHI			RKNE			RTIB			RANK			RHEE			RTOE			*39			*40			*41			*42		
		X1	Y1	Z1	X2	Y2	Z2	X3	Y3	Z3	X4	Y4	Z4	X5	Y5	Z5	X6	Y6	Z6	X7	Y7	Z7	X8	Y8	Z8	X9	Y9	Z9	X10	Y10	Z10	X11	Y11	Z11	X12	Y12	Z12	X13	Y13	Z13	X14	Y14	Z14	X15	Y15	Z15	X16	Y16	Z16	X17	Y17	Z17	X18	Y18	Z18	X19	Y19	Z19	X20	Y20	Z20	X21	Y21	Z21	X22	Y22	Z22	X23	Y23	Z23	X24	Y24	Z24	X25	Y25	Z25	X26	Y26	Z26	X27	Y27	Z27	X28	Y28	Z28	X29	Y29	Z29	X30	Y30	Z30	X31	Y31	Z31	X32	Y32	Z32	X33	Y33	Z33	X34	Y34	Z34	X35	Y35	Z35	X36	Y36	Z36	X37	Y37	Z37	X38	Y38	Z38	X39	Y39	Z39	X40	Y40	Z40	X41	Y41	Z41	X42	Y42	Z42	X43	Y43	Z43
																																																																																																																																		
48	0.47	-293.72726	1630.79822	-1090.39905	-297.21536	1620.25623	-958.99658	-427.26898	1579.04138	-1094.22571	-429.23264	1573.64465	-965.00555	-432.4953	1422.29382	-1033.87061	-476.28152	1095.53137	-1009.07922	-325.04578	1340.65015	-1030.6134	-290.07666	1165.96082	-1026.81909	-510.70828	1259.27686	-942.44855	-380.69711	1369.43787	-1193.30334	-446.9213	1180.66089	-1259.43616	-494.7272	1078.98596	-1268.58679	-532.83173	935.24457	-1298.13037	-516.65967	802.34381	-1269.59668	-578.67126	825.59851	-1298.62781	-578.28632	734.23932	-1304.7406	-368.88754	1383.80493	-871.6582	-408.3259	1196.57605	-767.60309	-395.40482	1077.49097	-747.41876	-343.46262	971.44	-732.64825	-240.81827	868.21466	-776.01721	-286.97696	847.02045	-732.63281	-222.97182	795.37836	-733.66736	-287.66534	944.20172	-1111.23853	-309.92953	932.2605	-894.88293	-449.06821	966.41455	-1096.10266	-456.14313	958.34741	-929.42249	-273.27176	644.35419	-1183.15454	-218.10323	493.74973	-1149.40613	-215.01736	234.33655	-1146.62219	-210.40532	63.28477	-1103.22461	-253.54477	50.0228	-1060.0542	-67.21448	37.46922	-1086.79944	-399.01996	591.61121	-848.30072	-411.9281	464.75543	-863.20581	-621.68054	306.36984	-871.05804	-775.34039	205.67715	-912.78461	-809.98767	231.1469	-956.99359	-750.21014	48.99829	-927.24109	-394.47974	1670.86145	-1034.2489	NaN	NaN	NaN	NaN	NaN	NaN	NaN	NaN	NaN
49	0.48	-280.19675	1633.50586	-1091.51465	-283.8187	1623.31421	-960.05664	-413.35501	1580.78882	-1095.37488	-415.50186	1575.70264	-966.20618	-417.72025	1424.62073	-1035.15369	-461.0405	1097.849	-1010.37195	-310.12405	1343.12292	-1031.32874	-274.86526	1168.36792	-1027.35999	-496.32352	1261.71814	-943.98444	-364.71002	1372.1864	-1194.40393	-429.21286	1182.73682	-1260.95691	-476.16476	1080.62964	-1270.24805	-512.40814	936.33264	-1299.65198	-494.81351	803.73981	-1269.25305	-556.48859	825.94	-1300.14661	-555.26361	734.19592	-1304.66626	-354.99478	1385.90405	-872.55255	-395.80203	1198.64722	-768.99847	-384.41562	1079.33777	-749.1886	-334.5752	972.02856	-734.08862	-233.85025	866.18298	-776.56799	-280.67197	846.07629	-733.53033	-218.14442	792.8692	-733.94373	-273.10254	946.20734	-1112.42981	-295.45081	934.31165	-895.55518	-434.15863	968.75555	-1097.10095	-441.45557	960.23566	-930.4054	-262.45218	644.0498	-1182.53394	-207.9299	493.5564	-1148.57581	-210.36411	234.5378	-1145.29492	-209.80328	63.37878	-1102.52295	-254.20541	50.9906	-1059.1499	-66.75082	37.10064	-1086.03699	-378.0484	592.20862	-849.32513	-386.62949	465.27417	-863.9538	-595.14685	309.23404	-871.11621	-750.7287	211.81804	-912.71069	-782.70135	240.08414	-957.36407	-739.09082	51.89735	-928.68732	-381.32742	1673.04541	-1035.58813	NaN	NaN	NaN	NaN	NaN	NaN	NaN	NaN	NaN
50	0.49	-266.57321	1636.30994	-1092.30188	-270.2312	1626.47217	-960.85596	-399.35995	1582.6991	-1096.32227	-401.69122	1577.82031	-967.15796	-403.00699	1427.2666	-1036.26025	-446.2182	1100.37292	-1011.86011	-295.38779	1345.78467	-1031.88452	-260.04489	1170.8031	-1027.98486	-482.17276	1264.32471	-945.63861	-348.82498	1374.82019	-1195.28552	-411.34344	1184.70483	-1262.44897	-457.32761	1082.15674	-1272.01917	-491.41992	937.17523	-1301.07434	-472.4476	804.90717	-1269.13721	-533.67651	826.13782	-1301.5802	-531.26227	734.14209	-1304.47827	-341.1958	1387.92932	-873.2384	-383.39136	1200.50122	-770.24115	-373.58087	1080.91064	-750.59003	-325.95508	972.4187	-735.38928	-227.02959	864.15564	-777.06842	-275.06784	845.3645	-734.34149	-213.89346	790.3399	-734.47473	-258.76489	948.01636	-1113.47253	-281.24158	936.55676	-896.08167	-419.41208	971.08459	-1098.30591	-427.35767	962.34973	-931.41022	-251.71295	643.93713	-1181.95801	-198.66536	493.33881	-1147.79004	-207.04201	234.9574	-1144.40076	-209.73683	63.50084	-1101.75598	-253.99713	51.09023	-1059.1261	-66.52264	36.83392	-1084.89868	-357.25137	593.28406	-850.44775	-361.42505	466.42538	-865.04346	-567.48248	310.86615	-871.26141	-725.3136	217.11241	-912.86145	-755.88013	246.54118	-957.72113	-719.62976	57.04261	-927.60663	-368.10938	1675.30298	-1036.73877	NaN	NaN	NaN	NaN	NaN	NaN	NaN	NaN	NaN
51	0.5	-252.9707	1639.22473	-1092.94739	-256.75967	1629.49792	-961.54456	-385.43628	1584.79797	-1097.09631	-387.94202	1580.05859	-967.95776	-388.22916	1429.99646	-1037.31628	-431.44235	1102.90662	-1013.37341	-280.78671	1348.37805	-1032.35413	-245.47592	1173.23206	-1028.58386	-468.19086	1266.73889	-947.65344	-332.87476	1377.52698	-1196.12378	-393.25659	1186.72913	-1264.0929	-438.18405	1083.50317	-1273.67371	-469.8432	937.83435	-1302.43225	-449.49524	806.11127	-1269.41052	-510.26617	826.125	-1302.84937	-506.19281	734.08704	-1304.16431	-327.44916	1389.92615	-873.75116	-371.36649	1202.25098	-771.32971	-362.91483	1082.28784	-751.70801	-317.5853	972.64886	-736.52368	-221.41805	861.59509	-777.72583	-269.73825	844.50043	-735.00818	-209.7574	787.55359	-734.95526	-244.61189	949.68652	-1114.28613	-267.17953	938.89746	-896.50006	-404.85449	973.4447	-1099.57349	-413.39438	964.42621	-932.5318	-240.92892	644.18335	-1181.49512	-190.43002	493.05127	-1147.45496	-204.54361	235.33069	-1144.04211	-209.11804	63.91034	-1101.78406	-254.17561	51.24072	-1058.93494	-66.32246	36.76882	-1084.02161	-336.54709	594.82257	-851.58264	-336.07086	468.15811	-865.85516	-540.02692	311.80304	-871.271	-700.2301	221.72997	-913.39581	-731.94031	250.49109	-958.13806	-691.7149	61.93865	-926.79065	-354.81833	1677.80396	-1037.59106	NaN	NaN	NaN	NaN	NaN	NaN	NaN	NaN	NaN
52	0.51	-239.41846	1642.0929	-1093.40918	-243.39816	1632.41162	-961.90631	-371.5141	1586.98511	-1097.80566	-374.2323	1582.23303	-968.62811	-373.64407	1432.61169	-1038.23486	-417.13004	1105.45947	-1014.8855	-266.28806	1350.92505	-1032.71985	-230.9617	1175.68774	-1029.23572	-454.11188	1269.09192	-949.82025	-317.07678	1380.3479	-1196.81262	-375.06137	1188.52747	-1265.32178	-418.67566	1084.75964	-1275.32495	-447.647	938.4021	-1303.76318	-425.52213	807.29938	-1269.66968	-485.8829	825.87457	-1303.74915	-480.6138	734.04736	-1304.50574	-313.78558	1391.89624	-874.16565	-359.56033	1204.07568	-772.41107	-352.26144	1083.672	-752.78223	-309.48267	972.81683	-737.66656	-215.8924	859.28033	-778.27258	-265.09317	843.61743	-735.49951	-206.4285	784.96881	-735.56659	-230.73781	951.3291	-1115.01758	-253.29608	941.35364	-897.11029	-390.61304	975.849	-1100.72363	-399.46631	966.74927	-933.66571	-230.39548	644.93286	-1181.33167	-182.90208	492.74841	-1147.55652	-202.57133	235.55707	-1143.6814	-209.15137	64.04011	-1101.51587	-253.23822	50.28545	-1059.45508	-66.31658	36.57263	-1083.66736	-315.65399	596.86823	-852.61371	-310.77289	470.39841	-866.93134	-513.4151	313.27753	-871.44568	-674.2876	225.1821	-914.14368	-708.58679	251.87556	-958.46442	-657.70764	65.84261	-926.59253	-341.57074	1680.15576	-1038.23914	NaN	NaN	NaN	NaN	NaN	NaN	NaN	NaN	NaN
53	0.52	-225.75047	1644.97791	-1093.51025	-229.90161	1635.16199	-962.16638	-357.56519	1589.18469	-1098.30774	-360.5676	1584.35962	-969.16638	-359.30124	1435.12402	-1039.05042	-402.87076	1107.95813	-1016.39911	-251.88458	1353.48938	-1033.0188	-216.7639	1178.16211	-1029.9657	-440.53513	1271.27466	-952.00305	-301.41464	1383.02368	-1197.39502	-356.69235	1190.42126	-1266.646	-398.80301	1085.87415	-1276.89014	-424.9093	938.94098	-1304.98926	-400.61905	808.48077	-1269.82288	-461.28339	825.90125	-1305.06128	-454.19879	734.05292	-1305.08313	-300.23203	1393.87622	-874.57965	-348.06046	1206.06885	-773.57391	-341.65189	1085.13989	-754.00562	-301.57864	973.07922	-738.79175	-210.72516	857.01483	-778.83466	-260.60397	842.88251	-736.16699	-203.45143	782.41632	-736.15607	-216.92059	953.03809	-1115.66479	-239.93983	943.72455	-897.92358	-376.69171	978.1347	-1101.82031	-385.38834	969.12921	-934.82104	-220.14314	646.00574	-1181.31006	-175.80576	492.48224	-1147.99988	-201.03621	235.6745	-1143.69836	-209.30887	64.25692	-1101.34656	-253.70673	50.55281	-1059.13049	-66.18293	36.3568	-1083.79858	-294.59985	599.3847	-853.57178	-285.599	473.16241	-868.03961	-487.0336	316.15277	-872.26312	-646.70856	226.78409	-914.77655	-683.6944	251.00325	-958.57898	-621.12427	68.73936	-926.02618	-328.1326	1682.51563	-1038.56104	NaN	NaN	NaN	NaN	NaN	NaN	NaN	NaN	NaN
54	0.53	-212.10287	1647.75598	-1093.55286	-216.54715	1637.76025	-962.16931	-343.64444	1591.47839	-1098.70862	-346.91293	1586.40234	-969.56342	-345.08282	1437.52649	-1039.82996	-388.80374	1110.29773	-1017.97595	-237.66379	1355.94836	-1033.2312	-202.66458	1180.61499	-1030.62671	-426.11621	1273.25684	-954.24225	-285.96622	1386.01587	-1198.06152	-338.03574	1192.11694	-1267.72278	-378.73093	1086.95325	-1278.30676	-401.61914	939.38159	-1306.15845	-375.56223	809.58295	-1270.41919	-435.92966	825.72113	-1306.25977	-426.95038	734.09668	-1305.96655	-286.86523	1395.95093	-874.99799	-336.77237	1208.16931	-774.93066	-330.995	1086.83606	-755.43597	-293.85785	973.51318	-739.94714	-205.96503	854.95636	-779.43817	-256.10071	842.06689	-737.18298	-200.92421	780.04108	-736.78986	-203.39174	954.75275	-1116.36316	-225.46532	946.78473	-898.47284	-362.94714	980.35254	-1102.66699	-371.60492	971.74731	-935.76807	-210.22449	647.15558	-1181.52588	-168.98788	492.22522	-1148.59827	-199.42598	235.65587	-1144.38525	-209.34236	64.34709	-1101.2041	-253.88023	50.84172	-1058.93445	-65.95963	36.15612	-1083.97095	-273.42459	602.45721	-854.38055	-260.37396	476.5524	-869.19275	-459.6369	318.51801	-873.38086	-617.73651	225.69736	-915.12421	-656.72668	248.07175	-958.80328	-583.56091	70.0145	-925.24738	-314.71808	1685.03418	-1038.67542	NaN	NaN	NaN	NaN	NaN	NaN	NaN	NaN	NaN
55	0.54	-198.41084	1650.46753	-1093.38745	-203.04788	1640.19177	-962.05219	-329.75687	1593.79553	-1098.9613	-333.30283	1588.396	-969.86517	-330.93555	1439.87	-1040.52478	-374.84341	1112.73438	-1019.5639	-223.51921	1358.34058	-1033.51086	-188.77393	1182.9585	-1031.24634	-412.58258	1275.31995	-956.28345	-270.7569	1388.61438	-1198.37354	-319.48837	1193.83008	-1268.82336	-358.34503	1087.87585	-1279.60327	-377.7399	939.78357	-1307.1958	-349.39508	810.72778	-1270.69092	-409.76031	825.41699	-1307.3938	-398.84647	734.13959	-1307.02271	-273.69403	1398.01221	-875.43774	-325.33359	1210.14539	-776.38324	-320.45709	1088.64026	-757.09406	-286.23141	974.17816	-741.2337	-201.62057	852.94745	-779.99457	-252.22527	841.55481	-737.68396	-199.06752	777.88776	-737.31909	-190.1257	956.45483	-1117.18506	-211.4483	949.77979	-899.25153	-349.48206	982.427	-1103.39551	-358.07373	974.54675	-936.44403	-200.51999	648.02032	-1181.79419	-162.25601	491.91959	-1149.18909	-197.186	235.52182	-1145.38794	-209.1564	64.43763	-1101.22302	-253.82011	51.0226	-1059.04944	-65.69608	35.89214	-1084.08044	-252.17696	606.00214	-855.06458	-235.34563	480.3746	-870.42041	-431.05182	319.4263	-874.42102	-588.04675	222.56956	-915.52673	-628.80182	243.39337	-959.47455	-545.83417	70.01411	-924.61652	-301.30804	1687.12146	-1038.76794	NaN	NaN	NaN	NaN	NaN	NaN	NaN	NaN	NaN
